<mxfile host="app.diagrams.net" modified="2022-11-23T07:54:39.124Z" agent="5.0 (Windows NT 10.0; Win64; x64) AppleWebKit/537.36 (KHTML, like Gecko) Chrome/105.0.0.0 Safari/537.36" version="20.6.0" etag="abFvZfWK1iCfSRXJJS6A" type="github">
  <diagram id="r5wSiN1M1tYY05mAhu5H" name="第 1 页">
    <mxGraphModel dx="870" dy="594" grid="1" gridSize="10" guides="1" tooltips="1" connect="1" arrows="1" fold="1" page="1" pageScale="1" pageWidth="827" pageHeight="1169" math="0" shadow="0">
      <root>
        <mxCell id="0" />
        <mxCell id="1" parent="0" />
        <mxCell id="BdNZgaLHqoKQGowgsfRD-4" value="linux内核" style="text;html=1;strokeColor=none;fillColor=none;align=center;verticalAlign=middle;whiteSpace=wrap;rounded=0;" vertex="1" parent="1">
          <mxGeometry x="200" y="370" width="60" height="30" as="geometry" />
        </mxCell>
        <mxCell id="BdNZgaLHqoKQGowgsfRD-5" value="用户进程" style="text;html=1;strokeColor=none;fillColor=none;align=center;verticalAlign=middle;whiteSpace=wrap;rounded=0;" vertex="1" parent="1">
          <mxGeometry x="200" y="320" width="60" height="30" as="geometry" />
        </mxCell>
        <mxCell id="BdNZgaLHqoKQGowgsfRD-6" value="" style="endArrow=none;dashed=1;html=1;rounded=0;" edge="1" parent="1">
          <mxGeometry width="50" height="50" relative="1" as="geometry">
            <mxPoint x="200" y="360" as="sourcePoint" />
            <mxPoint x="640" y="360" as="targetPoint" />
          </mxGeometry>
        </mxCell>
        <mxCell id="BdNZgaLHqoKQGowgsfRD-12" style="edgeStyle=orthogonalEdgeStyle;rounded=0;orthogonalLoop=1;jettySize=auto;html=1;exitX=0.5;exitY=1;exitDx=0;exitDy=0;entryX=0.5;entryY=0;entryDx=0;entryDy=0;" edge="1" parent="1" source="BdNZgaLHqoKQGowgsfRD-8" target="BdNZgaLHqoKQGowgsfRD-9">
          <mxGeometry relative="1" as="geometry" />
        </mxCell>
        <mxCell id="BdNZgaLHqoKQGowgsfRD-8" value="POSIX接口调用" style="rounded=0;whiteSpace=wrap;html=1;" vertex="1" parent="1">
          <mxGeometry x="270" y="260" width="100" height="40" as="geometry" />
        </mxCell>
        <mxCell id="BdNZgaLHqoKQGowgsfRD-13" style="edgeStyle=orthogonalEdgeStyle;rounded=0;orthogonalLoop=1;jettySize=auto;html=1;exitX=0.5;exitY=1;exitDx=0;exitDy=0;entryX=0.25;entryY=0;entryDx=0;entryDy=0;" edge="1" parent="1" source="BdNZgaLHqoKQGowgsfRD-9" target="BdNZgaLHqoKQGowgsfRD-11">
          <mxGeometry relative="1" as="geometry" />
        </mxCell>
        <mxCell id="BdNZgaLHqoKQGowgsfRD-9" value="open 系统调用" style="rounded=0;whiteSpace=wrap;html=1;" vertex="1" parent="1">
          <mxGeometry x="270" y="315" width="100" height="40" as="geometry" />
        </mxCell>
        <mxCell id="BdNZgaLHqoKQGowgsfRD-16" style="edgeStyle=orthogonalEdgeStyle;rounded=0;orthogonalLoop=1;jettySize=auto;html=1;exitX=0.75;exitY=1;exitDx=0;exitDy=0;entryX=0;entryY=0.5;entryDx=0;entryDy=0;dashed=1;" edge="1" parent="1" source="BdNZgaLHqoKQGowgsfRD-11" target="BdNZgaLHqoKQGowgsfRD-14">
          <mxGeometry relative="1" as="geometry" />
        </mxCell>
        <mxCell id="BdNZgaLHqoKQGowgsfRD-17" style="edgeStyle=orthogonalEdgeStyle;rounded=0;orthogonalLoop=1;jettySize=auto;html=1;exitX=0.5;exitY=1;exitDx=0;exitDy=0;entryX=0;entryY=0.5;entryDx=0;entryDy=0;dashed=1;" edge="1" parent="1" source="BdNZgaLHqoKQGowgsfRD-11" target="BdNZgaLHqoKQGowgsfRD-15">
          <mxGeometry relative="1" as="geometry" />
        </mxCell>
        <mxCell id="BdNZgaLHqoKQGowgsfRD-19" style="edgeStyle=orthogonalEdgeStyle;rounded=0;orthogonalLoop=1;jettySize=auto;html=1;exitX=0.75;exitY=0;exitDx=0;exitDy=0;entryX=0.5;entryY=1;entryDx=0;entryDy=0;" edge="1" parent="1" source="BdNZgaLHqoKQGowgsfRD-11" target="BdNZgaLHqoKQGowgsfRD-18">
          <mxGeometry relative="1" as="geometry" />
        </mxCell>
        <mxCell id="BdNZgaLHqoKQGowgsfRD-11" value="open 处理函数" style="rounded=0;whiteSpace=wrap;html=1;" vertex="1" parent="1">
          <mxGeometry x="340" y="390" width="100" height="40" as="geometry" />
        </mxCell>
        <mxCell id="BdNZgaLHqoKQGowgsfRD-14" value="文件描述符表" style="ellipse;whiteSpace=wrap;html=1;" vertex="1" parent="1">
          <mxGeometry x="440" y="450" width="120" height="40" as="geometry" />
        </mxCell>
        <mxCell id="BdNZgaLHqoKQGowgsfRD-15" value="页缓存" style="ellipse;whiteSpace=wrap;html=1;" vertex="1" parent="1">
          <mxGeometry x="440" y="500" width="120" height="40" as="geometry" />
        </mxCell>
        <mxCell id="BdNZgaLHqoKQGowgsfRD-24" style="edgeStyle=orthogonalEdgeStyle;rounded=0;orthogonalLoop=1;jettySize=auto;html=1;exitX=0.5;exitY=0;exitDx=0;exitDy=0;entryX=0.5;entryY=1;entryDx=0;entryDy=0;" edge="1" parent="1" source="BdNZgaLHqoKQGowgsfRD-18" target="BdNZgaLHqoKQGowgsfRD-23">
          <mxGeometry relative="1" as="geometry" />
        </mxCell>
        <mxCell id="BdNZgaLHqoKQGowgsfRD-18" value="系统调用后" style="rounded=0;whiteSpace=wrap;html=1;" vertex="1" parent="1">
          <mxGeometry x="410" y="315" width="100" height="40" as="geometry" />
        </mxCell>
        <mxCell id="BdNZgaLHqoKQGowgsfRD-22" value="返回错误码与文件描述符序号" style="text;html=1;strokeColor=none;fillColor=none;align=center;verticalAlign=middle;whiteSpace=wrap;rounded=0;" vertex="1" parent="1">
          <mxGeometry x="450" y="360" width="170" height="30" as="geometry" />
        </mxCell>
        <mxCell id="BdNZgaLHqoKQGowgsfRD-23" value="POSIX接口后" style="rounded=0;whiteSpace=wrap;html=1;" vertex="1" parent="1">
          <mxGeometry x="410" y="260" width="100" height="40" as="geometry" />
        </mxCell>
      </root>
    </mxGraphModel>
  </diagram>
</mxfile>
